<mxfile host="app.diagrams.net" modified="2023-09-22T02:56:50.220Z" agent="Mozilla/5.0 (Windows NT 10.0; Win64; x64) AppleWebKit/537.36 (KHTML, like Gecko) Chrome/116.0.0.0 Safari/537.36" etag="pUbRJjHAx3Mv7W5tIF3L" version="21.7.4" type="github">
  <diagram name="第 1 页" id="6Li2ixvVHfsgvOMX2kAW">
    <mxGraphModel dx="2074" dy="1118" grid="1" gridSize="10" guides="1" tooltips="1" connect="1" arrows="1" fold="1" page="1" pageScale="1" pageWidth="827" pageHeight="1169" math="0" shadow="0">
      <root>
        <mxCell id="0" />
        <mxCell id="1" parent="0" />
        <mxCell id="nYilgNeW-s1yCCHdk5ec-20" style="edgeStyle=orthogonalEdgeStyle;rounded=0;orthogonalLoop=1;jettySize=auto;html=1;entryX=0.5;entryY=1;entryDx=0;entryDy=0;" parent="1" source="nYilgNeW-s1yCCHdk5ec-3" target="nYilgNeW-s1yCCHdk5ec-2" edge="1">
          <mxGeometry relative="1" as="geometry" />
        </mxCell>
        <mxCell id="nYilgNeW-s1yCCHdk5ec-3" value="&lt;font face=&quot;Times New Roman&quot; style=&quot;font-size: 30px;&quot;&gt;Query&lt;/font&gt;" style="text;html=1;align=center;verticalAlign=middle;resizable=0;points=[];autosize=1;strokeColor=none;fillColor=none;" parent="1" vertex="1">
          <mxGeometry x="186" y="680" width="100" height="50" as="geometry" />
        </mxCell>
        <mxCell id="nYilgNeW-s1yCCHdk5ec-4" value="&lt;font face=&quot;Times New Roman&quot; style=&quot;font-size: 30px;&quot;&gt;Question&lt;/font&gt;" style="text;html=1;align=center;verticalAlign=middle;resizable=0;points=[];autosize=1;strokeColor=none;fillColor=none;" parent="1" vertex="1">
          <mxGeometry x="580" y="680" width="130" height="50" as="geometry" />
        </mxCell>
        <mxCell id="nYilgNeW-s1yCCHdk5ec-15" style="edgeStyle=orthogonalEdgeStyle;rounded=0;orthogonalLoop=1;jettySize=auto;html=1;exitX=0.5;exitY=0;exitDx=0;exitDy=0;" parent="1" source="nYilgNeW-s1yCCHdk5ec-13" edge="1">
          <mxGeometry relative="1" as="geometry">
            <mxPoint x="220" y="90" as="targetPoint" />
          </mxGeometry>
        </mxCell>
        <mxCell id="nYilgNeW-s1yCCHdk5ec-16" style="edgeStyle=orthogonalEdgeStyle;rounded=0;orthogonalLoop=1;jettySize=auto;html=1;exitX=0.5;exitY=0;exitDx=0;exitDy=0;" parent="1" source="nYilgNeW-s1yCCHdk5ec-13" edge="1">
          <mxGeometry relative="1" as="geometry">
            <mxPoint x="430" y="90" as="targetPoint" />
          </mxGeometry>
        </mxCell>
        <mxCell id="nYilgNeW-s1yCCHdk5ec-13" value="&lt;font face=&quot;Times New Roman&quot; style=&quot;font-size: 30px;&quot;&gt;FFNN&lt;/font&gt;" style="rounded=1;whiteSpace=wrap;html=1;" parent="1" vertex="1">
          <mxGeometry x="200" y="170" width="260" height="80" as="geometry" />
        </mxCell>
        <mxCell id="nYilgNeW-s1yCCHdk5ec-14" value="" style="group" parent="1" vertex="1" connectable="0">
          <mxGeometry x="106" y="520" width="260" height="80" as="geometry" />
        </mxCell>
        <mxCell id="nYilgNeW-s1yCCHdk5ec-2" value="" style="rounded=1;whiteSpace=wrap;html=1;fillColor=#4034ba;" parent="nYilgNeW-s1yCCHdk5ec-14" vertex="1">
          <mxGeometry width="260" height="80" as="geometry" />
        </mxCell>
        <mxCell id="nYilgNeW-s1yCCHdk5ec-10" value="" style="shape=image;verticalLabelPosition=bottom;labelBackgroundColor=default;verticalAlign=top;aspect=fixed;imageAspect=0;image=https://chatglm.cn/img/logo_white.74c0b874.svg;" parent="nYilgNeW-s1yCCHdk5ec-14" vertex="1">
          <mxGeometry x="7.689999999999998" y="10" width="244.62" height="60" as="geometry" />
        </mxCell>
        <mxCell id="nYilgNeW-s1yCCHdk5ec-17" value="&lt;font face=&quot;Times New Roman&quot; style=&quot;font-size: 30px;&quot;&gt;1&lt;/font&gt;" style="text;html=1;align=center;verticalAlign=middle;resizable=0;points=[];autosize=1;strokeColor=none;fillColor=none;" parent="1" vertex="1">
          <mxGeometry x="200" y="20" width="40" height="50" as="geometry" />
        </mxCell>
        <mxCell id="nYilgNeW-s1yCCHdk5ec-18" value="&lt;font face=&quot;Times New Roman&quot; style=&quot;font-size: 30px;&quot;&gt;0&lt;/font&gt;" style="text;html=1;align=center;verticalAlign=middle;resizable=0;points=[];autosize=1;strokeColor=none;fillColor=none;" parent="1" vertex="1">
          <mxGeometry x="410" y="20" width="40" height="50" as="geometry" />
        </mxCell>
        <mxCell id="nYilgNeW-s1yCCHdk5ec-23" value="" style="shape=datastore;whiteSpace=wrap;html=1;" parent="1" vertex="1">
          <mxGeometry x="605" y="360" width="90" height="100" as="geometry" />
        </mxCell>
        <mxCell id="nYilgNeW-s1yCCHdk5ec-24" value="&lt;font face=&quot;Times New Roman&quot;&gt;&lt;span style=&quot;font-size: 30px;&quot;&gt;Voter Database&lt;/span&gt;&lt;/font&gt;" style="text;html=1;align=center;verticalAlign=middle;resizable=0;points=[];autosize=1;strokeColor=none;fillColor=none;" parent="1" vertex="1">
          <mxGeometry x="545" y="300" width="210" height="50" as="geometry" />
        </mxCell>
        <mxCell id="nYilgNeW-s1yCCHdk5ec-31" style="edgeStyle=orthogonalEdgeStyle;rounded=0;orthogonalLoop=1;jettySize=auto;html=1;exitX=0.5;exitY=0;exitDx=0;exitDy=0;entryX=0.5;entryY=1;entryDx=0;entryDy=0;" parent="1" source="nYilgNeW-s1yCCHdk5ec-25" target="nYilgNeW-s1yCCHdk5ec-13" edge="1">
          <mxGeometry relative="1" as="geometry" />
        </mxCell>
        <mxCell id="nYilgNeW-s1yCCHdk5ec-25" value="" style="rounded=1;whiteSpace=wrap;html=1;" parent="1" vertex="1">
          <mxGeometry x="170" y="380" width="140" height="40" as="geometry" />
        </mxCell>
        <mxCell id="nYilgNeW-s1yCCHdk5ec-26" value="" style="ellipse;whiteSpace=wrap;html=1;aspect=fixed;" parent="1" vertex="1">
          <mxGeometry x="180" y="385" width="30" height="30" as="geometry" />
        </mxCell>
        <mxCell id="nYilgNeW-s1yCCHdk5ec-27" value="" style="ellipse;whiteSpace=wrap;html=1;aspect=fixed;" parent="1" vertex="1">
          <mxGeometry x="221" y="385" width="30" height="30" as="geometry" />
        </mxCell>
        <mxCell id="nYilgNeW-s1yCCHdk5ec-28" value="" style="ellipse;whiteSpace=wrap;html=1;aspect=fixed;" parent="1" vertex="1">
          <mxGeometry x="265" y="385" width="30" height="30" as="geometry" />
        </mxCell>
        <mxCell id="nYilgNeW-s1yCCHdk5ec-33" value="" style="group" parent="1" vertex="1" connectable="0">
          <mxGeometry x="520" y="520" width="260" height="80" as="geometry" />
        </mxCell>
        <mxCell id="nYilgNeW-s1yCCHdk5ec-34" value="" style="rounded=1;whiteSpace=wrap;html=1;fillColor=#4034ba;" parent="nYilgNeW-s1yCCHdk5ec-33" vertex="1">
          <mxGeometry width="260" height="80" as="geometry" />
        </mxCell>
        <mxCell id="nYilgNeW-s1yCCHdk5ec-35" value="" style="shape=image;verticalLabelPosition=bottom;labelBackgroundColor=default;verticalAlign=top;aspect=fixed;imageAspect=0;image=https://chatglm.cn/img/logo_white.74c0b874.svg;" parent="nYilgNeW-s1yCCHdk5ec-33" vertex="1">
          <mxGeometry x="7.689999999999998" y="10" width="244.62" height="60" as="geometry" />
        </mxCell>
      </root>
    </mxGraphModel>
  </diagram>
</mxfile>
